<svg width="20" height="20" viewBox="0 0 20 20" fill="none" xmlns="http://www.w3.org/2000/svg">
<path d="M10 10.8333C11.3807 10.8333 12.5 9.71402 12.5 8.33331C12.5 6.9526 11.3807 5.83331 10 5.83331C8.61929 5.83331 7.5 6.9526 7.5 8.33331C7.5 9.71402 8.61929 10.8333 10 10.8333Z" stroke="#01714B" stroke-width="1.5" stroke-linecap="round" stroke-linejoin="round"/>
<path d="M9.99967 18.0834C14.4163 14.1667 16.6663 10.8334 16.6663 8.33335C16.6663 6.56524 15.964 4.86955 14.7137 3.61931C13.4635 2.36907 11.7678 1.66669 9.99967 1.66669C8.23156 1.66669 6.53587 2.36907 5.28563 3.61931C4.03539 4.86955 3.33301 6.56524 3.33301 8.33335C3.33301 10.8334 5.58301 14.0834 9.99967 18.0834Z" stroke="#01714B" stroke-width="1.5" stroke-linecap="round" stroke-linejoin="round"/>
</svg>
