<svg width="22" height="19" viewBox="0 0 22 19" fill="none" xmlns="http://www.w3.org/2000/svg">
<path fill-rule="evenodd" clip-rule="evenodd" d="M1.02282 7.85593L20.5936 0.152041C21.4341 -0.337095 22.2746 0.396609 21.9144 1.74173L18.5525 17.7609C18.3124 18.8615 17.712 19.1061 16.7515 18.6169L11.7087 14.8261L9.3074 17.2718C9.06726 17.5164 8.82713 17.7609 8.34687 17.7609C7.89181 17.7609 7.85068 17.6204 7.75283 17.2861C7.72159 17.1794 7.68458 17.0529 7.62647 16.9049L5.70541 11.0353L0.782686 9.44562C-0.297911 9.20106 -0.297911 8.34507 1.02282 7.85593ZM8.70707 12.5027L18.0722 3.82056C18.4324 3.45371 17.9522 3.20914 17.4719 3.57599L6.4258 10.6685L8.34687 16.5381L8.70707 12.5027Z" fill="#01714B"/>
</svg>
