<svg width="22" height="22" viewBox="0 0 22 22" fill="none" xmlns="http://www.w3.org/2000/svg">
<path fill-rule="evenodd" clip-rule="evenodd" d="M18.7947 3.19708C16.7266 1.13652 13.9762 0.00115817 11.0459 0C5.00822 0 0.0942634 4.89009 0.0918471 10.9008C0.0910417 12.8222 0.59547 14.6977 1.554 16.3508L0 22L5.80692 20.4841C7.40683 21.3525 9.20822 21.8102 11.0416 21.811H11.0461C17.0831 21.811 21.9976 16.9203 22 10.9095C22.0012 7.99663 20.8628 5.25765 18.7947 3.19708ZM11.0461 19.9698H11.0423C9.40865 19.9691 7.80626 19.5324 6.40842 18.7068L6.07593 18.5104L2.63007 19.41L3.54985 16.0664L3.33334 15.7236C2.42197 14.2809 1.9406 12.6135 1.94132 10.9015C1.94332 5.90563 6.02764 1.84119 11.0497 1.84119C13.4815 1.84211 15.7674 2.78584 17.4864 4.49851C19.2054 6.21118 20.1515 8.48772 20.1506 10.9088C20.1485 15.905 16.0642 19.9698 11.0461 19.9698ZM14.1698 12.2974C14.4207 12.3883 15.7664 13.0473 16.0401 13.1837C16.0935 13.2103 16.1434 13.2343 16.1897 13.2565C16.3806 13.3484 16.5096 13.4104 16.5646 13.5018C16.6331 13.6154 16.6331 14.1608 16.405 14.7971C16.1769 15.4334 15.0834 16.0142 14.5575 16.0924C14.0859 16.1625 13.4893 16.1917 12.8336 15.9845C12.4361 15.8588 11.9263 15.6913 11.2732 15.4106C8.70763 14.3081 6.9737 11.8334 6.64571 11.3653C6.62269 11.3325 6.6066 11.3095 6.59763 11.2976L6.59535 11.2946C6.45026 11.1019 5.48004 9.81333 5.48004 8.47982C5.48004 7.22506 6.09933 6.5674 6.38438 6.26469C6.40391 6.24396 6.42187 6.22489 6.43795 6.2074C6.68885 5.93473 6.98536 5.86655 7.16783 5.86655C7.35028 5.86655 7.53293 5.86824 7.6924 5.87614C7.71204 5.87711 7.73247 5.87699 7.75359 5.87686C7.91312 5.87589 8.11204 5.87469 8.30821 6.34374C8.38396 6.52483 8.4949 6.79362 8.61182 7.07688C8.84701 7.64671 9.1064 8.27514 9.15211 8.3662C9.22054 8.50254 9.26615 8.66162 9.1749 8.84343C9.16128 8.87056 9.14868 8.89617 9.13664 8.92065C9.06803 9.06013 9.01764 9.16256 8.90124 9.29788C8.85561 9.35091 8.80846 9.40806 8.76131 9.46521C8.66703 9.57948 8.57275 9.69374 8.49068 9.7751C8.35367 9.91087 8.211 10.0583 8.37065 10.331C8.5303 10.6037 9.07965 11.4958 9.89327 12.218C10.7679 12.9944 11.5281 13.3226 11.9134 13.4889C11.9886 13.5214 12.0496 13.5477 12.0943 13.57C12.368 13.7063 12.5277 13.6836 12.6873 13.5018C12.847 13.32 13.3716 12.7065 13.554 12.4338C13.7365 12.1611 13.9189 12.2065 14.1698 12.2974Z" fill="#01714B"/>
</svg>
