<svg width="22" height="16" viewBox="0 0 22 16" fill="none" xmlns="http://www.w3.org/2000/svg">
<path fill-rule="evenodd" clip-rule="evenodd" d="M19.6132 0.488082C20.5455 0.757473 21.279 1.51873 21.5386 2.50322H21.5394L21.5115 2.31858C21.832 4.09913 22 5.93492 22 7.81158C22 7.84631 21.9998 7.88105 21.9996 7.91428C21.9995 7.94128 21.9993 7.96728 21.9993 7.99149C22 8.05714 22 8.12354 22 8.18994C22 10.0658 21.8328 11.9024 21.5401 13.4983L21.5357 13.518C21.2804 14.4828 20.5469 15.244 19.5948 15.518L19.9132 15.4847C17.2528 15.8244 14.5432 16 11.7933 16C11.5146 16 11.2358 15.9977 10.9996 15.9947L11.0422 15.9939C10.7634 15.9977 10.4847 15.9992 10.206 15.9992C7.45681 15.9992 4.74797 15.8237 2.40589 15.5165L2.38609 15.5119C1.45381 15.2425 0.720301 14.4813 0.460641 13.4968L0.488514 13.6814C0.167973 11.9009 0 10.0651 0 8.18842C0 8.15369 0.000199596 8.11895 0.000390552 8.08572C0.000544231 8.05897 0.000692314 8.0332 0.000726257 8.00918C0 7.94356 0 7.87719 0 7.81082C0 5.93417 0.167239 4.09762 0.460641 2.5017L0.465042 2.48203C0.719568 1.51722 1.45307 0.756716 2.40443 0.482028L2.08609 0.515324C4.74651 0.175558 7.45681 0 10.206 0C10.4854 0 10.7634 0.00227015 10.9996 0.00529701L10.9571 0.00605373C11.2351 0.00227015 11.5138 0.000756716 11.7933 0.000756716C14.5425 0.000756716 17.2513 0.176315 19.5934 0.483541L19.6132 0.488082ZM8.74924 4.62732V11.375L14.4992 8.00151L8.74924 4.62732Z" fill="#01714B"/>
</svg>
